<svg id="sass" xmlns="http://www.w3.org/2000/svg" width="1280" height="960" viewBox="0 0 1280 960">
  <path id="Tracé_592" data-name="Tracé 592" d="M593.53.09Q934.15.09,1274.78,0c3.97,0,5.23.49,5.22,4.99q-.21,475.08-.02,950.15c0,4.08-.85,4.84-4.87,4.84Q640.055,959.8,5.01,960C.57,960,0,958.81,0,954.8Q.165,678.7.1,402.58c1.99-.15,1.98,1.49,2.21,2.68,6.54,33.81,23.34,62.32,45.13,88.39,19,22.72,41.11,42.09,64.14,60.52,28.11,22.48,58.01,42.47,87.52,63,15.58,10.83,31.16,21.67,45.96,33.57.65.52,1.32,1.01,1.96,1.55,5.27,4.52,5.31,6.05-.64,9.24-18.18,9.76-36.66,18.97-54.38,29.58-38.07,22.81-74.81,47.34-106.03,79.35-23.59,24.19-38.51,52.67-42.16,86.28-2.92,26.91,1.75,52.5,18.78,74.63,8.26,10.73,18.51,18.26,32.18,21.23,13.25,2.88,26.68,4.79,40.07,4.66a190.309,190.309,0,0,0,93.02-24.98,217.429,217.429,0,0,0,50.33-39.03c23.35-24.38,39.97-52.65,49.19-85.16a228.317,228.317,0,0,0,9-69.51c-.7-23.26-4.42-46.01-13.74-67.58-2.7-6.25-2.52-6.98,3.23-10.4,20.46-12.17,40.98-24.22,62.01-35.39,1.43-.76,3.02-2.13,4.59-.92,1.59,1.22.71,3.12.19,4.65-6.78,20.3-10.59,41.22-13.12,62.42-5.18,43.57,1.44,84.9,23.41,123.3,2.72,4.75,6.35,8.91,9.77,13.21,13.26,16.65,46.37,17.29,61.82.22,8.66-9.57,14.93-20.37,20.81-31.54,11.63-22.11,21.45-45.07,31.14-68.08.85-2.01,1.2-5.61,3.83-4.99,2.35.55.86,3.77.71,5.82-.84,11.76-2.72,23.49-2.07,35.31.81,14.63,1.96,29.19,9.07,42.57,8.28,15.58,25.93,20.37,40.81,10.74,14.19-9.19,24.64-21.97,32.92-36.31,19.22-33.29,37.23-67.27,54.3-101.72,16.85-34,32.19-68.71,46.63-103.81,3.29-8,6.68-15.97,9.85-24.02a20.861,20.861,0,0,1,1.2-2.74c.66-1.17,1.37-2.48,2.97-2.19,1.32.25,1.62,1.54,1.94,2.67.98,3.53,1.42,7.18,2.11,10.77,5.98,31.01,17.27,60.09,32.25,87.75,3.44,6.35,2.73,10.74-1.46,16.54-20.99,29.06-45.15,55.5-67.73,83.25a268.556,268.556,0,0,0-16.46,21.97,29.569,29.569,0,0,0-3.97,9.11c-2.9,11.48,1.82,20.3,13.2,23.63,12.09,3.54,24.44,2.51,36.63.55,29.84-4.8,57.12-15.84,80.31-35.47,20.02-16.95,30.81-38.57,31.58-65.28.58-20.16-4.39-38.91-11.75-57.25-2.02-5.05-1.7-8.85,1.4-13.36a978.313,978.313,0,0,0,69.2-117.89c1.07-2.16,1.82-5.7,4.49-5.37,3.05.37,2.64,4.13,3.15,6.57,4.26,20.21,8.72,40.37,16.65,59.53,4.07,9.84,8.76,19.41,13.59,28.91,3.35,6.59,2.83,7.62-2.83,12.65-25.97,23.13-48.73,48.75-61.62,81.69-4.44,11.35-7.09,23.17-6.87,35.56.37,20.27,16.33,33.99,36.13,29.32,27.2-6.41,52.16-17.86,73.66-36.26,12.92-11.06,24.19-23.26,31.22-39,6.48-14.5,7.54-29.47,4.63-44.93a203.721,203.721,0,0,0-6.78-26.07c-2.24-6.8-1.53-8.39,5.27-10.77a239.428,239.428,0,0,1,64.34-13.11c32.58-2.03,64.54.89,95.7,10.42,28.1,8.59,52.85,22.68,70.65,47.03,10.72,14.66,17.01,31.03,17.62,49.08.49,14.67-5.61,27.47-14.21,39.17-6.04,8.21-14.03,14.12-22.27,19.8-2.33,1.61-4.84,2.96-6.9,4.93-1.26,1.2-2.14,2.64-1.38,4.46a4.067,4.067,0,0,0,4,2.49,22.388,22.388,0,0,0,9.29-1.61c27.78-12.32,47.72-31.73,53.54-62.51,4.96-26.25-.65-51.11-14.02-73.96-18.46-31.56-45.87-52.59-79.69-65.76-30.85-12.02-63-15.29-95.69-13.48a260.917,260.917,0,0,0-94.91,23.63c-5.64,2.59-7.14,2.27-9.95-3.18-7.03-13.6-14.12-27.18-19.65-41.5-4.14-10.71-4.57-22.1-6.27-33.26-3.61-23.66,2.7-45.89,9.74-68.02,1.36-4.28,2.93-8.5,4.22-12.8,1.68-5.6.49-8.69-4.36-11.93-4.9-3.26-10.57-4.33-16.17-4.61-16.04-.83-31.92.36-47.27,5.68a12.039,12.039,0,0,0-8.09,8.1c-3.27,9.97-6.55,19.93-8.57,30.24-2.32,11.89-7.24,22.84-12.42,33.63-19.12,39.79-40.79,78.19-63.69,115.91-.35.57-.68,1.15-1.05,1.7-2.69,3.93-3.98,3.93-6.3-.09-11.14-19.35-17.12-40.06-19.17-62.41-2.3-25.04,4.4-48.09,12.06-71.19.78-2.37,1.71-4.69,2.37-7.1,1.72-6.32.15-10.05-5.78-13a35.279,35.279,0,0,0-13.94-3.66,143.992,143.992,0,0,0-44.05,4.13c-7.22,1.88-11.75,5.73-13.31,13.6-5.22,26.34-16.51,50.52-27.28,74.88q-22.5,50.91-45.2,101.74c-9.52,21.26-18.82,42.63-29.06,63.55-6.22,12.7-12.42,25.41-18.92,37.98a72.527,72.527,0,0,1-6.56,10.6c-1.2,1.58-2.54,3.48-4.82,2.92-2.16-.52-2.14-2.84-2.39-4.56-1.49-10.14-.76-20.26.94-30.29,4.73-27.94,12.34-55.21,19.3-82.63,3.93-15.49,8.5-30.81,12.21-46.35,2.37-9.95-1.09-16.81-10.52-20.88-8.93-3.85-17.65-4.83-25.91,1.7-1.14.9-2.56,2.01-4.07,1.02-1.84-1.21-1.37-3.22-1.12-5.03,1.84-13.07,2.4-26.16.45-39.27a44.493,44.493,0,0,0-1.03-4.88c-6-22.53-20.03-32.84-45.67-29.98-16.96,1.89-31.68,9.95-45.68,19.09a216.181,216.181,0,0,0-55.23,51.49,30.5,30.5,0,0,1-10.06,8.69c-37.08,20.29-74.33,40.28-111.23,60.92-10.66,5.96-10.77,6.14-19.31-2.72-21.47-22.26-46.08-40.78-70.39-59.68-19.19-14.91-38.61-29.54-56.77-45.71-21.1-18.78-40.5-39.04-53.59-64.5-15.03-29.22-15.83-59.76-7.76-90.86,7.46-28.79,23.05-53.28,41.84-75.91,24.76-29.83,54.51-54.08,85.96-76.37,32.38-22.95,66.75-42.58,101.86-61.05a736.819,736.819,0,0,1,108.99-47.04A554.71,554.71,0,0,1,545.93,78.92c22.7-2.83,45.54-3,68.29-1.96,24.02,1.1,47.65,5.38,70.01,14.79,12.47,5.25,24.13,11.76,33.95,21.48,13.12,12.98,18.5,28.88,19.49,46.72,1.53,27.43-7.34,52.11-20.34,75.61-15,27.12-35.29,49.92-58.45,70.28-43.31,38.07-93.49,63.21-148.66,79.01a396.182,396.182,0,0,1-73.52,13.77c-31.52,2.86-62.5.13-91.9-12.84-13.2-5.82-25.39-13.18-34.82-24.44a23.824,23.824,0,0,0-4.36-4.09c-2.08-1.49-4.28-2.84-6.9-1.41s-2.71,4.06-2.55,6.58c.39,6.3,2.86,11.99,5.99,17.3,8.73,14.83,21.41,25.68,35.7,34.93,23.28,15.07,49.12,21.47,76.41,23.71a386.058,386.058,0,0,0,53.87.55,431.511,431.511,0,0,0,98.09-17.51c25.58-7.58,50.68-16.39,74.39-28.82a330.776,330.776,0,0,0,58.73-39.49,323.174,323.174,0,0,0,65.84-74.5c19.37-30.44,33.01-63.13,37.41-99.14,3.76-30.84.6-60.81-14.38-88.7C778,71.73,763.18,56.93,745.54,44.72c-24.91-17.25-52.69-27.58-82.01-34.12-21.47-4.79-43.17-8-65.24-8.25-1.8-.02-4.19.6-4.79-2.25Z" fill="none"/>
  <path id="Tracé_593" data-name="Tracé 593" d="M593.53.09c7.48,1.75,15.15,1.12,22.72,1.82,38.72,3.58,76.17,11.81,110.85,30.08,28.17,14.84,51.58,34.76,65.43,64.19,11.26,23.92,14.42,49.31,12.08,75.4-5.44,60.53-34.01,110.05-74.22,153.83-48.4,52.68-109.04,83.88-177.7,101.2-42.86,10.81-86.24,16.1-130.41,13.82-34.67-1.79-67.41-9.9-95.38-31.85-13.37-10.49-25.13-22.35-30.65-39.05a27.869,27.869,0,0,1-1.6-8.78c0-2.95.96-5.23,3.57-6.63,2.73-1.47,5.22-.69,7.3,1.31,3.83,3.69,7.4,7.66,11.35,11.2,17.25,15.48,38.13,23.31,60.38,27.9,31.5,6.5,62.88,3.62,94.12-2.08,48.87-8.92,94.89-25.62,137.39-51.5,40.6-24.72,75.56-55.53,101.42-95.84,13.25-20.64,23.36-42.78,25.77-67.4,3.55-36.27-6.4-62.3-42.7-80.51-18.79-9.43-38.93-14.34-59.62-17.08-25.34-3.36-50.8-3.23-76.21-.95-35.7,3.2-70.56,10.74-104.8,21.24-69.36,21.25-133.22,54.12-194.5,92.35-36.39,22.7-70.64,48.24-100.55,79.17-22.85,23.64-42.42,49.65-53.37,81.07q-25.245,72.45,24.26,131.48c18.78,22.29,40.81,40.97,63.51,59,26.58,21.1,54.14,40.96,79.52,63.56,7.84,6.98,15.32,14.33,22.51,21.96,1.99,2.11,3.45,2.25,5.93.9q60.795-33.36,121.69-66.55a14.992,14.992,0,0,0,4.54-4.5c22.63-29.54,49.74-53.59,84.51-68,13.18-5.46,26.9-7.67,40.92-3.26,14.43,4.53,21.39,15.69,24.82,29.45,3.64,14.6,2.67,29.37.73,44.11-.21,1.62-.92,3.18-.26,4.86,1.54.18,2.42-.91,3.47-1.67,10.47-7.56,26.24-5.96,34.97,3.56,4.19,4.57,5.11,9.94,3.59,15.8-6.27,24.1-12.66,48.17-18.84,72.29-4.95,19.3-9.84,38.62-13.05,58.3-1.61,9.86-2.36,19.81-.76,29.78.21,1.31-.44,3.5,1.57,3.7,1.53.15,2.4-1.61,3.25-2.82,5.67-8.06,9.9-16.95,14.18-25.75,35.18-72.36,66.8-146.33,99.19-219.94,6.33-14.38,10.21-29.48,13.81-44.66,1.43-6.01,4.6-9.78,10.35-11.53a123.11,123.11,0,0,1,54.7-4.25,23.676,23.676,0,0,1,9.26,3.55c5.71,3.67,7.02,6.9,4.94,13.39-4.3,13.44-9.06,26.74-12.15,40.54-3.65,16.29-2.8,32.6-.99,49.06,2.14,19.51,10.22,36.62,19.57,54.1,4.32-7.18,8.48-13.94,12.49-20.78,20.59-35.16,40.61-70.61,57.84-107.59,6.24-13.41,8.75-27.83,12.85-41.82,1.49-5.1,3.35-10.09,4.72-15.22a10.938,10.938,0,0,1,7.55-7.95c19.08-6.43,38.54-8.33,58.44-4.62a21.614,21.614,0,0,1,8.18,3.55c5.1,3.48,6.2,6.87,4.29,12.84-4.97,15.48-10.46,30.79-13.33,46.91-2.64,14.81-1.09,29.41.43,44.17,2.53,24.64,15.61,44.95,25.99,66.41,1.3,2.69,2.85,1.95,4.81,1.02a247.067,247.067,0,0,1,62.86-20.42c50.77-8.98,100.51-6.94,147.46,16.74,35.87,18.09,62.63,45.03,74.59,84.28,8.5,27.89,7.64,55.25-9.64,80.21-10.3,14.88-24.28,25.38-40.89,32.46a32.958,32.958,0,0,1-8.72,1.95c-2.94.4-5.69.13-7.13-3.08-1.52-3.38.48-5.48,2.87-7.12,6.31-4.33,12.85-8.33,18.57-13.46,13.81-12.41,22.84-27.55,23.37-46.34.51-18.36-6.07-34.9-16.7-49.72-17.65-24.62-42.48-38.74-70.78-47.5-28.24-8.74-57.31-11.56-86.71-10.76a225.992,225.992,0,0,0-72.66,13.74q-6.36,2.35-4.17,8.68c4.73,13.55,8.2,27.4,8.54,41.81.49,21.3-8.18,39.16-22.02,54.62-24.44,27.31-55.38,43.79-90.74,51.94-19.95,4.6-36.62-9.36-37-29.88-.44-23.88,8.43-44.81,20.92-64.46a237.468,237.468,0,0,1,49.14-55.43c3.62-3.01,4.27-5.27,1.92-9.47-16.74-29.92-26.29-62.3-32.08-95.95-2.08.37-2.17,2.15-2.78,3.35C875.06,554.95,851.44,596,824.34,635c-1.89,2.72-1.76,4.81-.58,7.72,7.1,17.46,12.58,35.27,12.9,54.44.52,31.04-11.4,56.25-35.92,74.75-30.76,23.21-65.51,35.57-104.52,34.21a27.608,27.608,0,0,1-3.97-.34c-20.6-3.74-27.41-19.36-15.72-36.85,12.32-18.44,27.28-34.82,41.52-51.74,15.64-18.58,31.2-37.21,45.24-57.06,1.84-2.6,1.8-4.39.49-7.11-7.01-14.51-14.7-28.72-20.5-43.79-7.35-19.12-11.95-39.01-15.87-59.07-.15-.78.02-1.68-1.03-2.32-1.31.5-1.48,1.9-1.92,3.02A1782.51,1782.51,0,0,1,615.59,777.69c-8.23,14.47-17.99,27.57-31.03,38-6.04,4.83-12.68,8.45-20.81,8.6-11.42.21-19.85-4.85-25.69-14.32-6.17-9.99-8.37-21.22-9.47-32.73a154.133,154.133,0,0,1-.6-26.91c.69-8.76,1.06-17.55,1.92-26.45-3.09,7.25-6.13,14.53-9.27,21.76-10.19,23.49-20.6,46.89-33.83,68.88-5.81,9.66-12.89,18.32-23.28,23.38-14.67,7.14-40.9,6.81-55.22-12.94-12.83-17.7-20.57-37.46-26-58.37-6.53-25.14-6.99-50.51-3.9-76.18,2.68-22.29,6.95-44.17,14.7-66.58-9.84,5.42-18.71,10.14-27.42,15.14-13.71,7.86-27.31,15.89-40.97,23.85-1.87,1.09-3.85,1.78-2.37,4.85,9.3,19.3,13.28,39.88,14.7,61.12,2.77,41.4-3.87,81.19-23.69,117.69-33.01,60.79-83.73,98.36-152.41,110.07-24.17,4.12-48.38,2.29-72.14-4.17-10.78-2.93-18.86-9.78-25.66-18.14-13.11-16.11-19.97-34.83-21.06-55.47-2.17-41.15,12.3-76.21,40.1-106.07,29.09-31.24,63.96-55.03,100.07-77.21,20.99-12.89,42.86-24.2,64.67-35.61,1.17-.61,2.29-1.31,3.95-2.26a230.818,230.818,0,0,0-21.53-17.29c-32.85-24.14-67.2-46.17-99.83-70.61-28.29-21.18-55.49-43.59-78.84-70.29C27.5,472.93,9.11,443.8,1.66,408.76c-.43-2.03.13-4.38-1.53-6.12V381.67a141.606,141.606,0,0,1,5.89-32.64,264.106,264.106,0,0,1,30.24-63.27,421.061,421.061,0,0,1,47.9-60.54c36.22-38.38,77.71-70.06,122-98.37a899.19,899.19,0,0,1,84.77-47.68A1068.238,1068.238,0,0,1,409.94,28.94,542.55,542.55,0,0,1,510.59,4.16,315.913,315.913,0,0,1,559.75.63c1.94.01,3.97.6,5.84-.48h27.97Z" fill="#FED32D"/>
  <path id="Tracé_594" data-name="Tracé 594" d="M565.55.09c-6.97,1.85-14.16,1.08-21.24,1.63A522.356,522.356,0,0,0,414.93,28.69a1023.583,1023.583,0,0,0-169.02,75.74c-40.54,22.79-79.22,48.38-114.84,78.37C88.24,218.87,50.41,259.25,24.03,309.23,12.25,331.56,3.4,354.93.78,380.3a3.914,3.914,0,0,1-.69,1.28Q.09,193.075,0,4.56C0,.84.85,0,4.59,0Q285.075.165,565.55.09Z" fill="none"/>
</svg>
